#Comment line ignore any data following # character 
#Hierarchical Translation and Rotation (.htr) file 
[Header]	
#Header keywords are followed by a single value 
FileType HTR		#Single word string
DataType HTRS		#Translation followed by rotation and scale data
FileVersion 1		#integer
NumSegments 84		#integer
NumFrames 2		#integer
DataFrameRate 30		#integer, data frame rate in this file
EulerRotationOrder ZYX
CalibrationUnits mm
RotationUnits Degrees
GlobalAxisofGravity Y
BoneLengthAxis Y
ScaleFactor 1.00
[SegmentNames&Hierarchy]
#CHILD	PARENT
MASTER GLOBAL
root MASTER
chest root
L_mid_tent01 root
R_mid_tent01 root
spine01 root
Bip01_Neck chest
L_humerus chest
R_humerus chest
weapon_bone chest
Bip01_Head Bip01_Neck
eye_left_bone Bip01_Head
eye_right_bone Bip01_Head
L_forearm L_humerus
L_front_hand L_forearm
L_weapon_bone L_forearm
L_front_hand01_01 L_front_hand
L_front_hand02_01 L_front_hand
L_front_hand03_01 L_front_hand
L_front_hand01_02 L_front_hand01_01
L_front_hand02_02 L_front_hand02_01
L_front_hand03_02 L_front_hand03_01
R_forearm R_humerus
R_front_hand R_forearm
R_weapon_bone R_forearm
R_front_hand01_01 R_front_hand
R_front_hand02_01 R_front_hand
R_front_hand03_01 R_front_hand
R_front_hand01_02 R_front_hand01_01
R_front_hand02_02 R_front_hand02_01
R_front_hand03_02 R_front_hand03_01
null_rope01_connect L_mid_tent01
Rope1_Seg01 null_rope01_connect
Rope1_Seg02 Rope1_Seg01
Rope1_Seg03 Rope1_Seg02
Rope1_Seg04 Rope1_Seg03
Rope1_Seg05 Rope1_Seg04
Rope1_Seg06 Rope1_Seg05
Rope1_Seg07 Rope1_Seg06
Rope1_Seg09 Rope1_Seg07
L_mid_hand01 Rope1_Seg09
L_mid_hand02 Rope1_Seg09
L_mid_hand03 Rope1_Seg09
null_rope02_connect R_mid_tent01
Rope2_Seg01 null_rope02_connect
Rope2_Seg02 Rope2_Seg01
Rope2_Seg03 Rope2_Seg02
Rope2_Seg04 Rope2_Seg03
Rope2_Seg05 Rope2_Seg04
Rope2_Seg06 Rope2_Seg05
Rope2_Seg07 Rope2_Seg06
Rope2_Seg09 Rope2_Seg07
R_mid_hand01 Rope2_Seg09
R_mid_hand02 Rope2_Seg09
R_mid_hand03 Rope2_Seg09
spine02 spine01
spine03 spine02
pelvis spine03
null_rope03_connect pelvis
null_rope04_connect pelvis
Rope3_Seg01 null_rope03_connect
Rope3_Seg02 Rope3_Seg01
Rope3_Seg03 Rope3_Seg02
Rope3_Seg04 Rope3_Seg03
Rope3_Seg05 Rope3_Seg04
Rope3_Seg06 Rope3_Seg05
Rope3_Seg07 Rope3_Seg06
Rope3_Seg08 Rope3_Seg07
Rope3_Seg09 Rope3_Seg08
R_rear_hand01 Rope3_Seg09
R_rear_hand02 Rope3_Seg09
R_rear_hand03 Rope3_Seg09
Rope4_Seg01 null_rope04_connect
Rope4_Seg02 Rope4_Seg01
Rope4_Seg03 Rope4_Seg02
Rope4_Seg04 Rope4_Seg03
Rope4_Seg05 Rope4_Seg04
Rope4_Seg06 Rope4_Seg05
Rope4_Seg07 Rope4_Seg06
Rope4_Seg08 Rope4_Seg07
Rope4_Seg09 Rope4_Seg08
L_rear_hand01 Rope4_Seg09
L_rear_hand02 Rope4_Seg09
L_rear_hand03 Rope4_Seg09
[BasePosition]
#SegmentName Tx, Ty, Tz, Rx, Ry, Rz, BoneLength
MASTER 0.000000 0.000000 0.000000 -90.000000 0.000000 0.000000 10.000000 
root 0.000000 0.000000 0.000000 0.000000 0.000000 0.000000 10.000000 
chest 0.000000 0.000000 0.000000 0.000000 0.000000 0.000000 10.000000 
L_mid_tent01 0.000000 0.000000 0.000000 0.000000 0.000000 0.000000 10.000000 
R_mid_tent01 0.000000 0.000000 0.000000 0.000000 0.000000 0.000000 10.000000 
spine01 0.000000 0.000000 0.000000 0.000000 0.000000 0.000000 10.000000 
Bip01_Neck 0.000000 0.000000 0.000000 0.000000 0.000000 0.000000 10.000000 
L_humerus 0.000000 0.000000 0.000000 0.000000 0.000000 0.000000 10.000000 
R_humerus 0.000000 0.000000 0.000000 0.000000 0.000000 0.000000 10.000000 
weapon_bone 0.000000 0.000000 0.000000 0.000000 0.000000 0.000000 10.000000 
Bip01_Head 0.000000 0.000000 0.000000 0.000000 0.000000 0.000000 10.000000 
eye_left_bone 0.000000 0.000000 0.000000 0.000000 0.000000 0.000000 10.000000 
eye_right_bone 0.000000 0.000000 0.000000 0.000000 0.000000 0.000000 10.000000 
L_forearm 0.000000 0.000000 0.000000 0.000000 0.000000 0.000000 10.000000 
L_front_hand 0.000000 0.000000 0.000000 0.000000 0.000000 0.000000 10.000000 
L_weapon_bone 0.000000 0.000000 0.000000 0.000000 0.000000 0.000000 10.000000 
L_front_hand01_01 0.000000 0.000000 0.000000 0.000000 0.000000 0.000000 10.000000 
L_front_hand02_01 0.000000 0.000000 0.000000 0.000000 0.000000 0.000000 10.000000 
L_front_hand03_01 0.000000 0.000000 0.000000 0.000000 0.000000 0.000000 10.000000 
L_front_hand01_02 0.000000 0.000000 0.000000 0.000000 0.000000 0.000000 10.000000 
L_front_hand02_02 0.000000 0.000000 0.000000 0.000000 0.000000 0.000000 10.000000 
L_front_hand03_02 0.000000 0.000000 0.000000 0.000000 0.000000 0.000000 10.000000 
R_forearm 0.000000 0.000000 0.000000 0.000000 0.000000 0.000000 10.000000 
R_front_hand 0.000000 0.000000 0.000000 0.000000 0.000000 0.000000 10.000000 
R_weapon_bone 0.000000 0.000000 0.000000 0.000000 0.000000 0.000000 10.000000 
R_front_hand01_01 0.000000 0.000000 0.000000 0.000000 0.000000 0.000000 10.000000 
R_front_hand02_01 0.000000 0.000000 0.000000 0.000000 0.000000 0.000000 10.000000 
R_front_hand03_01 0.000000 0.000000 0.000000 0.000000 0.000000 0.000000 10.000000 
R_front_hand01_02 0.000000 0.000000 0.000000 0.000000 0.000000 0.000000 10.000000 
R_front_hand02_02 0.000000 0.000000 0.000000 0.000000 0.000000 0.000000 10.000000 
R_front_hand03_02 0.000000 0.000000 0.000000 0.000000 0.000000 0.000000 10.000000 
null_rope01_connect 0.000000 0.000000 0.000000 0.000000 0.000000 0.000000 10.000000 
Rope1_Seg01 0.000000 0.000000 0.000000 0.000000 0.000000 0.000000 10.000000 
Rope1_Seg02 0.000000 0.000000 0.000000 0.000000 0.000000 0.000000 10.000000 
Rope1_Seg03 0.000000 0.000000 0.000000 0.000000 0.000000 0.000000 10.000000 
Rope1_Seg04 0.000000 0.000000 0.000000 0.000000 0.000000 0.000000 10.000000 
Rope1_Seg05 0.000000 0.000000 0.000000 0.000000 0.000000 0.000000 10.000000 
Rope1_Seg06 0.000000 0.000000 0.000000 0.000000 0.000000 0.000000 10.000000 
Rope1_Seg07 0.000000 0.000000 0.000000 0.000000 0.000000 0.000000 10.000000 
Rope1_Seg09 0.000000 0.000000 0.000000 0.000000 0.000000 0.000000 10.000000 
L_mid_hand01 0.000000 0.000000 0.000000 0.000000 0.000000 0.000000 10.000000 
L_mid_hand02 0.000000 0.000000 0.000000 0.000000 0.000000 0.000000 10.000000 
L_mid_hand03 0.000000 0.000000 0.000000 0.000000 0.000000 0.000000 10.000000 
null_rope02_connect 0.000000 0.000000 0.000000 0.000000 0.000000 0.000000 10.000000 
Rope2_Seg01 0.000000 0.000000 0.000000 0.000000 0.000000 0.000000 10.000000 
Rope2_Seg02 0.000000 0.000000 0.000000 0.000000 0.000000 0.000000 10.000000 
Rope2_Seg03 0.000000 0.000000 0.000000 0.000000 0.000000 0.000000 10.000000 
Rope2_Seg04 0.000000 0.000000 0.000000 0.000000 0.000000 0.000000 10.000000 
Rope2_Seg05 0.000000 0.000000 0.000000 0.000000 0.000000 0.000000 10.000000 
Rope2_Seg06 0.000000 0.000000 0.000000 0.000000 0.000000 0.000000 10.000000 
Rope2_Seg07 0.000000 0.000000 0.000000 0.000000 0.000000 0.000000 10.000000 
Rope2_Seg09 0.000000 0.000000 0.000000 0.000000 0.000000 0.000000 10.000000 
R_mid_hand01 0.000000 0.000000 0.000000 0.000000 0.000000 0.000000 10.000000 
R_mid_hand02 0.000000 0.000000 0.000000 0.000000 0.000000 0.000000 10.000000 
R_mid_hand03 0.000000 0.000000 0.000000 0.000000 0.000000 0.000000 10.000000 
spine02 0.000000 0.000000 0.000000 0.000000 0.000000 0.000000 10.000000 
spine03 0.000000 0.000000 0.000000 0.000000 0.000000 0.000000 10.000000 
pelvis 0.000000 0.000000 0.000000 0.000000 0.000000 0.000000 10.000000 
null_rope03_connect 0.000000 0.000000 0.000000 0.000000 0.000000 0.000000 10.000000 
null_rope04_connect 0.000000 0.000000 0.000000 0.000000 0.000000 0.000000 10.000000 
Rope3_Seg01 0.000000 0.000000 0.000000 0.000000 0.000000 0.000000 10.000000 
Rope3_Seg02 0.000000 0.000000 0.000000 0.000000 0.000000 0.000000 10.000000 
Rope3_Seg03 0.000000 0.000000 0.000000 0.000000 0.000000 0.000000 10.000000 
Rope3_Seg04 0.000000 0.000000 0.000000 0.000000 0.000000 0.000000 10.000000 
Rope3_Seg05 0.000000 0.000000 0.000000 0.000000 0.000000 0.000000 10.000000 
Rope3_Seg06 0.000000 0.000000 0.000000 0.000000 0.000000 0.000000 10.000000 
Rope3_Seg07 0.000000 0.000000 0.000000 0.000000 0.000000 0.000000 10.000000 
Rope3_Seg08 0.000000 0.000000 0.000000 0.000000 0.000000 0.000000 10.000000 
Rope3_Seg09 0.000000 0.000000 0.000000 0.000000 0.000000 0.000000 10.000000 
R_rear_hand01 0.000000 0.000000 0.000000 0.000000 0.000000 0.000000 10.000000 
R_rear_hand02 0.000000 0.000000 0.000000 0.000000 0.000000 0.000000 10.000000 
R_rear_hand03 0.000000 0.000000 0.000000 0.000000 0.000000 0.000000 10.000000 
Rope4_Seg01 0.000000 0.000000 0.000000 0.000000 0.000000 0.000000 10.000000 
Rope4_Seg02 0.000000 0.000000 0.000000 0.000000 0.000000 0.000000 10.000000 
Rope4_Seg03 0.000000 0.000000 0.000000 0.000000 0.000000 0.000000 10.000000 
Rope4_Seg04 0.000000 0.000000 0.000000 0.000000 0.000000 0.000000 10.000000 
Rope4_Seg05 0.000000 0.000000 0.000000 0.000000 0.000000 0.000000 10.000000 
Rope4_Seg06 0.000000 0.000000 0.000000 0.000000 0.000000 0.000000 10.000000 
Rope4_Seg07 0.000000 0.000000 0.000000 0.000000 0.000000 0.000000 10.000000 
Rope4_Seg08 0.000000 0.000000 0.000000 0.000000 0.000000 0.000000 10.000000 
Rope4_Seg09 0.000000 0.000000 0.000000 0.000000 0.000000 0.000000 10.000000 
L_rear_hand01 0.000000 0.000000 0.000000 0.000000 0.000000 0.000000 10.000000 
L_rear_hand02 0.000000 0.000000 0.000000 0.000000 0.000000 0.000000 10.000000 
L_rear_hand03 0.000000 0.000000 0.000000 0.000000 0.000000 0.000000 10.000000 
#Beginning of Data. Separated by tabs
#Fr	Tx	Ty	Tz	Rx	Ry	Rz	SF
[MASTER]
29 -5199.219238 7140.593750 575.377197 0.001660 0.001660 0.001660 8851.611328
30 -5380.104492 7389.609375 402.175659 0.001660 0.001660 0.001660 9149.513672
[root]
29 -20.253920 -62.583008 1501.310059 -96.225883 -27.597359 -90.433990 1502.750366
30 -18.726818 -62.717281 1501.031616 -94.955978 -27.637581 -90.327118 1502.458008
[chest]
29 -84.512650 -34.090519 0.000000 -14.141097 -29.921694 171.780960 91.129311
30 -84.512650 -34.090519 0.000000 -14.480138 -28.251659 171.713104 91.129311
[L_mid_tent01]
29 27.298731 22.179047 -249.919205 0.743031 35.528492 75.193657 252.382141
30 27.298719 22.179039 -249.919220 -2.247487 34.559017 69.133835 252.382156
[R_mid_tent01]
29 23.228794 24.509907 226.238495 163.257721 -46.840385 83.873924 228.744751
30 23.228794 24.509907 226.238495 166.554306 -46.270069 79.101967 228.744751
[spine01]
29 -0.361383 -0.195265 0.000000 0.002002 0.001225 27.059919 0.410763
30 -0.361383 -0.195265 0.000000 0.001997 0.001233 26.615673 0.410763
[Bip01_Neck]
29 165.484543 71.581718 0.000119 176.643677 -1.657967 43.431911 180.302734
30 165.484543 71.581718 0.000119 176.643677 -1.657967 43.431911 180.302734
[L_humerus]
29 -13.983130 -135.272980 -120.471481 -6.264010 66.616432 83.695473 181.680161
30 -13.983130 -135.272980 -120.471481 -6.170608 66.908386 83.801849 181.680161
[R_humerus]
29 -13.983309 -135.273102 125.287651 26.750124 -67.537308 68.930656 184.909012
30 -13.983309 -135.273102 125.287651 26.883429 -67.842880 68.792747 184.909012
[weapon_bone]
29 235.964890 -300.705902 0.000000 0.000000 -89.951546 -128.212341 382.234833
30 235.964890 -300.705902 0.000000 0.000000 -89.951546 -128.212341 382.234833
[Bip01_Head]
29 213.326645 186.042328 7.559280 5.200446 6.151311 -43.834991 283.155701
30 213.326614 186.042282 7.559223 5.200446 6.151311 -43.834991 283.155640
[eye_left_bone]
29 -24.626970 125.451866 -64.772606 0.000000 -90.000000 -99.840431 143.318359
30 -24.626970 125.451866 -64.772606 0.000000 -90.000000 -99.840431 143.318359
[eye_right_bone]
29 -24.626970 125.451866 64.327362 0.000000 -89.965736 80.156380 143.117676
30 -24.626970 125.451866 64.327362 0.000000 -89.965736 80.156380 143.117676
[L_forearm]
29 322.776093 0.000000 -0.000119 0.000411 -0.002311 -110.186462 322.776093
30 322.776093 0.000000 -0.000119 0.000409 -0.002311 -110.088272 322.776093
[L_front_hand]
29 241.149185 -0.042021 -3.300071 -178.667953 -1.835447 -27.422350 241.171753
30 241.149185 -0.042021 -3.300071 -178.667953 -1.835447 -27.422350 241.171753
[L_weapon_bone]
29 156.183838 0.000000 0.000000 0.000014 0.000007 0.000001 156.183838
30 156.183838 0.000000 0.000000 0.000014 0.000007 0.000001 156.183838
[L_front_hand01_01]
29 86.095154 20.947098 -0.655860 -0.358124 -0.483585 74.301987 88.609184
30 86.095154 20.947098 -0.655860 -0.360010 -0.482183 74.749405 88.609184
[L_front_hand02_01]
29 86.935165 -11.437475 24.513514 152.741348 -59.405788 -59.444721 91.046425
30 86.935165 -11.437475 24.513514 153.427795 -59.611073 -60.242870 91.046425
[L_front_hand03_01]
29 86.637497 -14.123976 -20.424902 -152.381119 57.628048 -60.890816 90.126129
30 86.637497 -14.123976 -20.424902 -153.017075 57.836395 -61.646004 90.126129
[L_front_hand01_02]
29 71.020905 -0.000179 0.000030 0.000325 -0.002325 -105.939087 71.020905
30 71.020905 -0.000179 0.000030 0.000327 -0.002324 -105.992577 71.020905
[L_front_hand02_02]
29 71.020927 -0.000119 0.000060 0.000325 -0.002325 -105.939087 71.020927
30 71.020927 -0.000119 0.000060 0.000327 -0.002324 -105.992577 71.020927
[L_front_hand03_02]
29 71.020905 -0.000060 0.000060 0.000325 -0.002325 -105.939087 71.020905
30 71.020905 -0.000060 0.000060 0.000327 -0.002324 -105.992577 71.020905
[R_forearm]
29 322.776428 -0.000060 0.000030 0.201656 0.066528 -108.840462 322.776428
30 322.776428 -0.000060 0.000030 0.201713 0.066354 -108.741913 322.776428
[R_front_hand]
29 238.847015 -0.006795 2.210259 -2.635298 -10.645461 -26.312506 238.857239
30 238.847015 -0.006795 2.210259 -2.635298 -10.645461 -26.312506 238.857239
[R_weapon_bone]
29 155.664093 0.002503 -0.000030 0.003487 0.001180 -90.988930 155.664078
30 155.664093 0.002503 -0.000030 0.003487 0.001180 -90.988930 155.664078
[R_front_hand01_01]
29 87.624611 14.231146 22.918642 -154.633484 -59.950607 61.746033 91.683487
30 87.624611 14.231146 22.918642 -154.633499 -59.950619 61.746044 91.683487
[R_front_hand02_01]
29 89.356956 14.367283 -19.491137 154.602661 58.302856 63.744389 92.579636
30 89.356956 14.367283 -19.491137 154.602661 58.302849 63.744389 92.579636
[R_front_hand03_01]
29 87.286232 -22.307278 -0.143439 0.162155 -0.423168 -75.767921 90.091743
30 87.286232 -22.307278 -0.143439 0.162155 -0.423168 -75.767921 90.091743
[R_front_hand01_02]
29 71.020905 0.000060 0.000119 0.002323 -0.000334 106.381714 71.020905
30 71.020905 0.000060 0.000119 0.002323 -0.000334 106.381714 71.020905
[R_front_hand02_02]
29 71.020844 -0.000030 -0.000119 0.002323 -0.000334 106.381714 71.020836
30 71.020844 -0.000030 -0.000119 0.002323 -0.000334 106.381714 71.020836
[R_front_hand03_02]
29 71.020905 0.000000 0.000030 0.002323 -0.000334 106.381714 71.020905
30 71.020905 0.000000 0.000030 0.002323 -0.000334 106.381714 71.020905
[null_rope01_connect]
29 328.732483 0.000000 -0.000238 -137.985626 -48.165585 -178.923843 328.732483
30 328.732483 0.000000 -0.000238 -136.975510 -50.389893 -174.849609 328.732483
[Rope1_Seg01]
29 0.000000 0.000000 0.000000 117.506973 13.320253 178.164795 0.000000
30 0.000000 0.000000 0.000000 118.594559 15.079070 179.625320 0.000000
[Rope1_Seg02]
29 139.999863 -0.000179 0.000000 18.225922 -10.051480 -22.244083 139.999863
30 139.999863 -0.000179 0.000000 19.758520 -5.396992 -24.811552 139.999863
[Rope1_Seg03]
29 139.999924 0.000060 -0.000060 16.908804 -10.158625 -16.340328 139.999924
30 139.999924 0.000060 -0.000060 20.533499 -6.696922 -17.422274 139.999924
[Rope1_Seg04]
29 139.999924 -0.000060 -0.000119 10.238286 -11.149358 -6.250425 139.999924
30 139.999924 -0.000060 -0.000119 15.355608 -13.065084 -6.544890 139.999924
[Rope1_Seg05]
29 139.999832 0.000119 -0.000060 9.243840 -29.033386 0.770624 139.999832
30 139.999832 0.000119 -0.000060 12.559707 -36.958115 2.545668 139.999832
[Rope1_Seg06]
29 139.999954 0.000119 -0.000060 -0.836210 -29.563101 6.081690 139.999954
30 139.999954 0.000119 -0.000060 -1.283280 -27.906364 7.914585 139.999954
[Rope1_Seg07]
29 139.999985 0.000060 0.000000 -2.809165 -14.101598 2.452907 139.999985
30 139.999985 0.000060 0.000000 -2.311944 -12.392590 3.293241 139.999985
[Rope1_Seg09]
29 121.602913 0.000119 -0.000089 -89.793175 -1.359789 0.847147 121.602913
30 121.602913 0.000119 -0.000089 -89.793175 -1.359789 0.847147 121.602913
[L_mid_hand01]
29 103.859421 1.038730 8.195221 130.544373 -67.584534 -38.866947 104.187431
30 103.859421 1.038730 8.195221 130.544373 -67.584534 -38.866943 104.187431
[L_mid_hand02]
29 105.572853 -4.139662 -10.864139 -168.923172 43.409321 -73.498909 106.211075
30 105.572853 -4.139662 -10.864139 -168.923172 43.409309 -73.498886 106.211075
[L_mid_hand03]
29 104.641464 17.579376 -3.913581 -6.012628 17.808178 74.893669 106.179977
30 104.641464 17.579376 -3.913581 -6.012627 17.808174 74.893669 106.179977
[null_rope02_connect]
29 328.732849 0.000179 -0.000119 -121.121483 46.691826 19.094112 328.732849
30 328.732849 0.000179 -0.000119 -120.879021 46.803642 15.800426 328.732849
[Rope2_Seg01]
29 0.000065 0.000046 0.000000 -104.582977 52.443604 -8.596786 0.000079
30 0.000066 0.000042 0.000000 -110.127243 57.869003 -9.740484 0.000078
[Rope2_Seg02]
29 139.999741 -0.000060 -0.000119 12.225425 -30.882082 -6.322168 139.999756
30 139.999741 -0.000060 -0.000119 14.513056 -25.889963 -11.006564 139.999756
[Rope2_Seg03]
29 140.000107 0.000030 0.000000 5.050507 -17.284040 -9.482338 140.000107
30 140.000107 0.000030 0.000000 6.688850 -14.105733 -11.880706 140.000107
[Rope2_Seg04]
29 139.999802 0.000000 -0.000060 -1.112300 -12.702371 10.740525 139.999802
30 139.999802 0.000000 -0.000060 -1.284410 -11.700931 9.076866 139.999802
[Rope2_Seg05]
29 139.999985 -0.000060 0.000119 3.926384 -14.086856 26.311295 139.999985
30 139.999985 -0.000060 0.000119 0.857526 -14.537807 26.419239 139.999985
[Rope2_Seg06]
29 139.999893 -0.000030 -0.000119 7.083277 -6.000871 13.237716 139.999893
30 139.999893 -0.000030 -0.000119 5.079124 -7.300914 13.641298 139.999893
[Rope2_Seg07]
29 139.999893 0.000060 -0.000060 4.797860 -2.256916 6.331895 139.999893
30 139.999893 0.000060 -0.000060 3.880890 -3.104219 6.652641 139.999893
[Rope2_Seg09]
29 121.338966 0.000089 -0.000060 33.793236 -1.359788 -0.847141 121.338966
30 121.338966 0.000089 -0.000060 33.793236 -1.359788 -0.847141 121.338966
[R_mid_hand01]
29 104.680779 11.144459 -10.335981 -16.212063 45.237247 70.462852 105.778534
30 104.680779 11.144459 -10.335981 -16.212063 45.237247 70.462852 105.778534
[R_mid_hand02]
29 104.070427 2.443552 8.231699 49.067368 -67.749771 39.286453 104.424065
30 104.070427 2.443552 8.231699 49.067368 -67.749771 39.286453 104.424065
[R_mid_hand03]
29 106.028137 -11.221827 -5.996406 -177.101105 15.551026 -76.585571 106.788818
30 106.028137 -11.221827 -5.996406 -177.101105 15.551026 -76.585571 106.788818
[spine02]
29 129.756927 0.001550 0.000119 0.433622 -4.036919 -14.024939 129.756927
30 129.756927 0.001550 0.000119 0.423707 -4.038050 -13.883000 129.756927
[spine03]
29 78.614380 0.081680 -4.899205 1.941621 3.809325 17.165314 78.766930
30 78.614388 0.081676 -4.899212 1.935976 3.811943 17.076508 78.766937
[pelvis]
29 169.435242 0.051022 0.000000 -0.064294 -0.179254 15.486165 169.435257
30 169.435242 0.051022 0.000000 -0.063194 -0.179464 15.305607 169.435257
[null_rope03_connect]
29 -1.257226 -2.466202 137.391083 -145.367981 -84.709724 -142.715424 137.418976
30 -1.257226 -2.466202 137.391083 -144.488556 -86.027039 -142.975174 137.418976
[null_rope04_connect]
29 -1.259640 -2.480268 -137.844437 -145.367981 -84.709724 -142.715424 137.872513
30 -1.259640 -2.480268 -137.844437 -144.488556 -86.027039 -142.975174 137.872513
[Rope3_Seg01]
29 0.000012 -0.000404 -0.000153 -159.871246 -48.121449 -46.027832 0.000432
30 0.000012 -0.000422 -0.000153 -152.322067 -44.000629 -52.493622 0.000448
[Rope3_Seg02]
29 139.999924 -0.000119 0.000060 5.318753 -7.640064 3.279077 139.999924
30 139.999924 -0.000119 0.000060 4.216206 -7.043102 2.975380 139.999924
[Rope3_Seg03]
29 139.999924 -0.000119 0.000119 2.990027 -2.195317 5.597588 139.999924
30 139.999924 -0.000119 0.000119 1.894718 -1.201693 4.514092 139.999924
[Rope3_Seg04]
29 139.999924 0.000119 0.000000 2.231336 -2.991249 2.744426 139.999924
30 139.999924 0.000119 0.000000 2.267059 -4.251770 1.645139 139.999924
[Rope3_Seg05]
29 139.999924 -0.000238 0.000060 20.083914 -27.164835 -7.928575 139.999924
30 139.999924 -0.000238 0.000060 22.720675 -31.569309 -5.662121 139.999924
[Rope3_Seg06]
29 139.999893 -0.000119 -0.000060 56.333374 -44.573399 2.312341 139.999893
30 139.999893 -0.000119 -0.000060 40.987381 -40.001900 10.404424 139.999893
[Rope3_Seg07]
29 139.999771 0.000060 -0.000119 15.178117 -9.361404 17.248234 139.999771
30 139.999771 0.000060 -0.000119 12.636161 -9.696020 15.673635 139.999771
[Rope3_Seg08]
29 139.999985 -0.000060 0.000000 4.274786 -1.580352 7.168941 139.999985
30 139.999985 -0.000060 0.000000 3.329201 -1.735945 5.247838 139.999985
[Rope3_Seg09]
29 90.185997 -0.000179 -0.000060 89.793228 -1.359877 -0.847183 90.185997
30 90.185997 -0.000179 -0.000060 89.793228 -1.359877 -0.847183 90.185997
[R_rear_hand01]
29 103.366196 -6.073594 -10.757982 -177.714203 24.565960 -73.910950 104.101845
30 103.366196 -6.073594 -10.757982 -177.714203 24.565960 -73.910950 104.101845
[R_rear_hand02]
29 100.509819 12.039542 -7.992327 -12.874829 36.868488 72.167213 101.543350
30 100.509819 12.039542 -7.992327 -12.874829 36.868488 72.167213 101.543350
[R_rear_hand03]
29 101.539970 5.215704 5.435467 71.484581 -71.816628 21.513813 101.819031
30 101.539970 5.215704 5.435467 71.484581 -71.816628 21.513813 101.819031
[Rope4_Seg01]
29 -0.000004 -0.000866 -0.000153 56.300709 -21.250671 -122.260239 0.000879
30 -0.000004 -0.000895 -0.000153 54.254429 -17.081366 -121.146286 0.000908
[Rope4_Seg02]
29 139.999985 0.000060 0.000119 -0.012114 -10.483252 -6.024314 139.999985
30 139.999985 0.000060 0.000119 -0.205266 -8.332305 -5.196884 139.999985
[Rope4_Seg03]
29 139.999924 0.000000 -0.000238 3.279833 -20.292162 -8.367005 139.999924
30 139.999924 0.000000 -0.000238 2.617600 -18.600340 -7.529772 139.999924
[Rope4_Seg04]
29 139.999985 0.000000 0.000119 -10.769336 -23.135414 -13.092803 139.999985
30 139.999985 0.000000 0.000119 -37.378738 -23.801338 -20.909002 139.999985
[Rope4_Seg05]
29 139.999802 -0.000060 -0.000119 -114.981674 -11.901357 -63.906147 139.999802
30 139.999802 -0.000060 -0.000119 -93.208534 27.876509 -68.656570 139.999802
[Rope4_Seg06]
29 139.999924 0.000000 0.000060 1.040938 25.004786 8.314485 139.999924
30 139.999924 0.000000 0.000060 -0.159238 18.971245 2.938864 139.999924
[Rope4_Seg07]
29 139.999802 0.000000 0.000000 0.294982 7.391436 2.161847 139.999802
30 139.999802 0.000000 0.000000 0.276251 5.531184 0.866677 139.999802
[Rope4_Seg08]
29 139.999924 0.000000 0.000119 -1.390804 2.632603 0.761291 139.999924
30 139.999924 0.000000 0.000119 -1.406030 1.205850 0.184723 139.999924
[Rope4_Seg09]
29 90.185791 0.000060 0.000060 -135.617828 2.228885 0.850567 90.185791
30 90.185791 0.000060 0.000060 -135.617828 2.228885 0.850567 90.185791
[L_rear_hand01]
29 101.696655 -8.392275 -7.654577 -12.874829 -36.868488 107.832764 102.329041
30 101.696655 -8.392275 -7.654577 -12.874829 -36.868488 107.832764 102.329041
[L_rear_hand02]
29 102.726799 -1.568258 5.773216 71.484634 71.816666 158.486176 102.900848
30 102.726799 -1.568258 5.773216 71.484581 71.816628 158.486160 102.900848
[L_rear_hand03]
29 104.552910 9.721220 -10.420293 -177.714203 -24.565960 -106.089035 105.519653
30 104.552910 9.721220 -10.420293 -177.714203 -24.565960 -106.089035 105.519653
